<svg version="1.2" xmlns="http://www.w3.org/2000/svg" viewBox="0 0 500 500" width="500" height="500">
	<style>
		.s0 { fill: #0d0d0d } 
		.s1 { fill: none;stroke: #c9c9c6;stroke-linecap: round;stroke-linejoin: round;stroke-width: 49 } 
	</style>
	<path id="Path 6" class="s0" d="m5.2 420.94v-342.72q0-3.61 0.35-7.2 0.36-3.59 1.06-7.13 0.7-3.54 1.75-6.99 1.05-3.45 2.43-6.78 1.38-3.34 3.08-6.52 1.7-3.18 3.71-6.18 2-3 4.29-5.79 2.29-2.79 4.84-5.34 2.55-2.55 5.34-4.84 2.79-2.29 5.79-4.29 3-2.01 6.18-3.71 3.18-1.7 6.52-3.08 3.33-1.38 6.78-2.43 3.45-1.04 6.99-1.75 3.54-0.7 7.13-1.06 3.59-0.35 7.2-0.35h342.72q3.61 0 7.2 0.35 3.59 0.36 7.13 1.06 3.54 0.71 6.99 1.75 3.45 1.05 6.78 2.43 3.34 1.38 6.52 3.08 3.18 1.7 6.18 3.71 3 2 5.79 4.29 2.79 2.29 5.34 4.84 2.55 2.55 4.84 5.34 2.29 2.79 4.29 5.79 2.01 3 3.71 6.18 1.7 3.18 3.08 6.52 1.38 3.33 2.43 6.78 1.04 3.45 1.75 6.99 0.7 3.54 1.06 7.13 0.35 3.59 0.35 7.2v342.72q0 3.61-0.35 7.2-0.36 3.59-1.06 7.13-0.71 3.54-1.75 6.99-1.05 3.45-2.43 6.78-1.38 3.34-3.08 6.52-1.7 3.18-3.71 6.18-2 3-4.29 5.79-2.29 2.79-4.84 5.34-2.55 2.55-5.34 4.84-2.79 2.29-5.79 4.29-3 2.01-6.18 3.71-3.18 1.7-6.52 3.08-3.33 1.38-6.78 2.43-3.45 1.05-6.99 1.75-3.54 0.7-7.13 1.06-3.59 0.35-7.2 0.35h-342.72q-3.61 0-7.2-0.35-3.59-0.36-7.13-1.06-3.54-0.7-6.99-1.75-3.45-1.05-6.78-2.43-3.34-1.38-6.52-3.08-3.18-1.7-6.18-3.71-3-2-5.79-4.29-2.79-2.29-5.34-4.84-2.55-2.55-4.84-5.34-2.29-2.79-4.29-5.79-2.01-3-3.71-6.18-1.7-3.18-3.08-6.52-1.38-3.33-2.43-6.78-1.05-3.45-1.75-6.99-0.7-3.54-1.06-7.13-0.35-3.59-0.35-7.2z"/>
	<path id="Path 8" fill-rule="evenodd" class="s1" d="m188.8 127.18l183.6 122.4-183.6 122.4"/>
</svg>